<svg width="58" height="67" viewBox="0 0 58 67" fill="none" xmlns="http://www.w3.org/2000/svg">
<rect x="12" y="22" width="45" height="45" fill="#D8E6F0"/>
<mask id="path-2-inside-1_414_10" fill="white">
<path d="M0 12H45V57H0V12Z"/>
</mask>
<path d="M0 57H-3V60H0V57ZM45 54H0V60H45V54ZM3 57V12H-3V57H3Z" fill="#2384CC" mask="url(#path-2-inside-1_414_10)"/>
<path d="M30 12C30.8284 12 31.5 11.3284 31.5 10.5C31.5 9.67157 30.8284 9 30 9V12ZM0 12H30V9H0V12Z" fill="#2384CC"/>
<path d="M47.5 27C47.5 26.1716 46.8284 25.5 46 25.5C45.1716 25.5 44.5 26.1716 44.5 27L47.5 27ZM47.5 57L47.5 27L44.5 27L44.5 57L47.5 57Z" fill="#2384CC"/>
<path d="M13.9393 41.3651C13.3536 41.9509 13.3536 42.9007 13.9393 43.4864C14.5251 44.0722 15.4749 44.0722 16.0607 43.4864L13.9393 41.3651ZM57.4264 -0.000624895L40.6961 4.48225L52.9435 16.7297L57.4264 -0.000624895ZM16.0607 43.4864L48.9411 10.606L46.8198 8.48466L13.9393 41.3651L16.0607 43.4864Z" fill="#2384CC"/>
</svg>
