<svg width="62" height="73" viewBox="0 0 62 73" fill="none" xmlns="http://www.w3.org/2000/svg">
<rect x="12" y="27.9785" width="45" height="45" fill="#D8E6F0"/>
<mask id="path-2-inside-1_414_17" fill="white">
<path d="M0 17.9785H45V62.9785H0V17.9785Z"/>
</mask>
<path d="M0 62.9785H-3V65.9785H0V62.9785ZM45 59.9785H0V65.9785H45V59.9785ZM3 62.9785V17.9785H-3V62.9785H3Z" fill="#2384CC" mask="url(#path-2-inside-1_414_17)"/>
<path d="M30 17.9766C30.8284 17.9766 31.5 17.305 31.5 16.4766C31.5 15.6481 30.8284 14.9766 30 14.9766V17.9766ZM0 17.9766H30V14.9766H0V17.9766Z" fill="#2384CC"/>
<path d="M47.5 32.9785C47.5 32.1501 46.8284 31.4785 46 31.4785C45.1716 31.4785 44.5 32.1501 44.5 32.9785L47.5 32.9785ZM47.5 62.9785L47.5 32.9785L44.5 32.9785L44.5 62.9785L47.5 62.9785Z" fill="#2384CC"/>
<path d="M32 30.2871L60.2843 2.00284" stroke="#2384CC" stroke-width="3" stroke-linecap="round"/>
</svg>
